# xmcd
#
# Track frame offsets: 
#        150
#        15134
#        29281
#        41566
#        51368
#        63016
#        75053
#        87166
#        98939
#        111793
#        123260
#        134213
#        149010
#        160642
#        176482
#        188812
#        204054
#        215618
#        228255
#        239152
#        249922
#        261112
#        276464
#        288201
#        297478
#        313347
#
# Disc length: 4388 seconds
#
# Revision: 1
# Processed by: cddbd v1.5.2PL0 Copyright (c) Steve Scherf et al.
# Submitted via: ExactAudioCopy v1.1
#
DISCID=7411221a
DTITLE=The Masqueraders - Unmasked
DYEAR=2004
DGENRE=R&B
TTITLE0=I'm Just An Average Guy (mono)
TTITLE1=I Ain't Gonna Stop (mono)
TTITLE2=On The Other Side (mono)
TTITLE3=Do You Love Me Baby (mono)
TTITLE4=This Heart Is Haunted (mono)
TTITLE5=Poor Boy's Dream (mono)
TTITLE6=I Ain't Got To Love Nobody Else (mono)
TTITLE7=I Don't Want Nobody To Lead Me On (mono)
TTITLE8=I Got It (mono)
TTITLE9=I'll Be Ready (mono)
TTITLE10=How Big Is Big (mono)
TTITLE11=Accept Me As I Am (mono)
TTITLE12=Love, Peace And Understanding (mono)
TTITLE13=Say It (mono)
TTITLE14=Tell Me You Love Me (mono)
TTITLE15=Let's Face Facts (mono)
TTITLE16=That's The Same Thing (mono)
TTITLE17=How (mono)
TTITLE18=Talk About A Woman (mono)
TTITLE19=I Got The Power (mono)
TTITLE20=Sweet Lovin' Woman (mono)
TTITLE21=Please Take Me Back (mono)
TTITLE22=One More Chance (mono)
TTITLE23=Together That's The Only Way (mono)
TTITLE24=Let Me Show The World (I Love You) (mono)
TTITLE25=The Truth Is Free (mono)
EXTD=
EXTT0=
EXTT1=
EXTT2=
EXTT3=
EXTT4=
EXTT5=
EXTT6=
EXTT7=
EXTT8=
EXTT9=
EXTT10=
EXTT11=
EXTT12=
EXTT13=
EXTT14=
EXTT15=
EXTT16=
EXTT17=
EXTT18=
EXTT19=
EXTT20=
EXTT21=
EXTT22=
EXTT23=
EXTT24=
EXTT25=
PLAYORDER=
